<svg id="Capa_1" data-name="Capa 1" xmlns="http://www.w3.org/2000/svg" viewBox="0 0 803.9 305.01"><defs><style>.cls-1{fill:#004481;}.cls-2{fill:#14c8be;}</style></defs><g id="Capa_2" data-name="Capa 2"><g id="Capa_1-2" data-name="Capa 1-2"><path class="cls-1" d="M257,145.69c0-13.67-4.76-22.27-15.82-22.27-6.29,0-12,3.84-16.12,8v30.26c5.37,5.07,9.83,7.52,16.43,7.52,10.29,0,15.51-8.6,15.51-23.49M200.32,219.1V104.68h22.89l1.84,12.44c5.37-7.37,13-14.13,25.19-14.13,18.58,0,31.48,14.29,31.48,42.54s-13.06,42.23-31.79,42.23c-11.06,0-18.74-4-24.88-10.9v38.55Z"/><path class="cls-1" d="M346.83,137.7c-1.23-11.52-6.45-17-15.67-17-7.68,0-14.28,5.07-16.13,17Zm-56.67,8c0-31.79,24.26-42.7,41.16-42.7s37.62,8.45,37.62,45.61v3.69H314.73c1.23,13.51,8.75,18.74,19,18.74a38.85,38.85,0,0,0,24.57-9.22L367.52,176c-9.52,8.14-21.35,12.29-35.63,12.29-21.35,0-41.77-10.91-41.77-42.54"/><path class="cls-1" d="M381.83,186.54V104.68h22.88l1.85,12.9c4.91-6.45,14-14.59,28.26-14.59,13.82,0,23.8,6.91,23.8,23.81v59.74H434.05V134.63c0-7.37-2.77-11.21-9.68-11.21-6.6,0-12.28,3.38-17.81,8.14v55Z"/><path class="cls-2" d="M531.71,145.69c0-13.67-4.76-22.27-15.81-22.27-6.3,0-12,3.84-16.13,8v30.26c5.38,5.07,9.83,7.52,16.43,7.52,10.29,0,15.51-8.6,15.51-23.49M475,219.1V104.68h22.89l1.84,12.44C505.15,109.75,512.83,103,525,103c18.58,0,31.48,14.29,31.48,42.54s-13.06,42.23-31.79,42.23c-11.06,0-18.74-4-24.88-10.9v38.55Z"/><path class="cls-2" d="M615.86,162.12V146.91c-19.5,2-27.79,6.92-27.79,14.44,0,5.22,3.68,7.83,9.06,7.83,8.6,0,14.59-2.91,18.73-7.06M564,165.65c0-18.89,16-29.33,51.91-32.25v-2c0-6-3.37-9.83-12.28-9.83-9.21,0-17,4.3-23.8,9.68l-13.36-13.36c8.13-7.53,20.42-14.9,40.69-14.9,23.35,0,32.87,11.06,32.87,32.1v51.45H617.71l-1.85-12c-7.52,8.44-16.43,13.21-28.56,13.21-12.59,0-23.35-8.14-23.35-22.12"/><path class="cls-2" d="M653.94,216.64l-1.84-20.58a54.51,54.51,0,0,0,14.59,2c5.37,0,8.45-2,10.44-7.07l1.54-4-30.56-80.47,24.26-3.69,18.43,55h.31l18.12-53.14h24l-34.4,90.46c-5.53,14.13-13.06,22.73-29.49,22.73A76.08,76.08,0,0,1,654,216.65"/><path class="cls-1" d="M129.68,70.75a59,59,0,1,0,59,59A59,59,0,0,0,129.68,70.75Zm-1.08,94a35.54,35.54,0,0,1,0-71.07h35.51v35.54a35.54,35.54,0,0,1-35.51,35.57Z"/><path class="cls-2" d="M164.14,129.26A35.54,35.54,0,1,1,128.6,93.72h35.51Z"/><path class="cls-1" d="M619.2,201.92l-9.06,17.25a.55.55,0,0,1-.75.2.64.64,0,0,1-.2-.2l-9.07-17.25a.53.53,0,0,0-.46-.28h-4.38a.4.4,0,0,0-.39.41.33.33,0,0,0,0,.17l14.27,26.71a.53.53,0,0,0,.93,0l14.27-26.71a.4.4,0,0,0-.18-.54.47.47,0,0,0-.17,0h-4.39a.53.53,0,0,0-.46.28"/><path class="cls-1" d="M624.34,224.93l9.06-17.24a.54.54,0,0,1,.73-.27.51.51,0,0,1,.27.27l9.07,17.24a.53.53,0,0,0,.46.28h4.38a.39.39,0,0,0,.4-.38.46.46,0,0,0-.05-.2l-14.27-26.71a.53.53,0,0,0-.93,0l-14.27,26.71a.39.39,0,0,0,.15.53.46.46,0,0,0,.2.05h4.39a.53.53,0,0,0,.46-.28"/><path class="cls-1" d="M556.58,225.21h-8.16a.52.52,0,0,1-.53-.51h0v-7.32a.53.53,0,0,1,.53-.53h8.16c3.89,0,5.63,1.1,5.63,4.19s-1.7,4.18-5.63,4.18m-8.16-19.58h8.05c3,0,4.48,1.27,4.48,3.61s-1.5,3.61-4.48,3.61h-8.05a.52.52,0,0,1-.52-.52h0v-6.17a.52.52,0,0,1,.52-.52h0m14,8.73a5.92,5.92,0,0,0,3.07-5.51c0-4.29-3.34-7.21-8.07-7.21H543.86a.52.52,0,0,0-.52.52h0v26.52a.52.52,0,0,0,.52.52h13c6.5,0,9.93-2.8,9.93-8.27a6.54,6.54,0,0,0-4.33-6.58"/><path class="cls-1" d="M584.44,225.21h-8.17a.52.52,0,0,1-.52-.52h0v-7.32a.52.52,0,0,1,.51-.53h8.18c3.89,0,5.63,1.1,5.63,4.19s-1.7,4.18-5.63,4.18m-8.16-19.58h8.05c3,0,4.48,1.27,4.48,3.61s-1.51,3.61-4.48,3.61h-8.05a.53.53,0,0,1-.53-.53h0v-6.17a.52.52,0,0,1,.52-.52h0m14,8.73a5.92,5.92,0,0,0,3.07-5.51c0-4.29-3.35-7.21-8.08-7.21H571.72a.53.53,0,0,0-.53.53h0v26.52a.52.52,0,0,0,.52.52h13c6.5,0,9.92-2.8,9.92-8.27a6.53,6.53,0,0,0-4.32-6.58"/><path class="cls-1" d="M517.56,222.72c0-3.57-1.78-5.3-3.95-5.3-1.6,0-2.74.82-4,2.12v6.37A5.59,5.59,0,0,0,513.7,228c2.17,0,3.9-1.6,3.9-5.28m-8,4.72-.05,1.77h-1.66V211.09l1.71-.25v7.27a5.61,5.61,0,0,1,4.34-2.14c3,0,5.35,2.19,5.35,6.73s-2.39,6.73-5.4,6.73a5.83,5.83,0,0,1-4.29-2"/><path class="cls-1" d="M520.61,234l-.12-1.48a8,8,0,0,0,1.88.23,2.6,2.6,0,0,0,2.68-2l.54-1.43-5-12.89,1.7-.32,4.1,11.12h0l4-10.95h1.78l-5.6,14.47c-.89,2.32-1.85,3.46-4.34,3.46a6.33,6.33,0,0,1-1.73-.18"/></g></g></svg>